<?xml version="1.0" encoding="UTF-8"?>
<svg fill="none" viewBox="0 0 885 455" xmlns="http://www.w3.org/2000/svg">
<path d="m678.1 394.1c1.823 0 3.3-1.478 3.3-3.3 0-1.823-1.477-3.3-3.3-3.3s-3.3 1.477-3.3 3.3c0 1.822 1.477 3.3 3.3 3.3z" stroke="#F4CD39" stroke-linecap="round" stroke-linejoin="round" stroke-miterlimit="10" stroke-width="2"/>
<path d="m880.3 342.9c1.823 0 3.3-1.477 3.3-3.3s-1.477-3.3-3.3-3.3-3.3 1.477-3.3 3.3 1.477 3.3 3.3 3.3z" opacity=".46" stroke="#F4CD39" stroke-linecap="round" stroke-linejoin="round" stroke-miterlimit="10" stroke-width="2"/>
<path d="m282.2 7.7c1.823 0 3.3-1.4775 3.3-3.3s-1.477-3.3-3.3-3.3-3.3 1.4774-3.3 3.3 1.477 3.3 3.3 3.3z" opacity=".46" stroke="#F4CD39" stroke-linecap="round" stroke-linejoin="round" stroke-miterlimit="10" stroke-width="2"/>
<path d="m598.3 207.8c2.761 0 5-2.239 5-5s-2.239-5-5-5-5 2.239-5 5 2.239 5 5 5z" stroke="#FDB130" stroke-linecap="round" stroke-linejoin="round" stroke-miterlimit="10" stroke-width="2"/>
<path d="m48.7 442.7c1.7121 0 3.1-1.388 3.1-3.1s-1.3879-3.1-3.1-3.1-3.1 1.388-3.1 3.1 1.3879 3.1 3.1 3.1z" stroke="#E03F8D" stroke-linecap="round" stroke-linejoin="round" stroke-miterlimit="10" stroke-width="2"/>
<path d="m489.7 311.7c2.209 0 4-1.791 4-4s-1.791-4-4-4-4 1.791-4 4 1.791 4 4 4z" stroke="#1DB7C2" stroke-linecap="round" stroke-linejoin="round" stroke-miterlimit="10" stroke-width="2"/>
<path d="m373.8 225c1.823 0 3.3-1.477 3.3-3.3s-1.477-3.3-3.3-3.3-3.3 1.477-3.3 3.3 1.477 3.3 3.3 3.3z" stroke="#FDB130" stroke-linecap="round" stroke-linejoin="round" stroke-miterlimit="10" stroke-width="2"/>
<path d="m844.1 453.7c2.209 0 4-1.791 4-4s-1.791-4-4-4-4 1.791-4 4 1.791 4 4 4z" stroke="#1DB7C2" stroke-linecap="round" stroke-linejoin="round" stroke-miterlimit="10" stroke-width="2"/>
<path d="m151 254.6c1.16 0 2.1-0.94 2.1-2.1s-0.94-2.1-2.1-2.1-2.1 0.94-2.1 2.1 0.94 2.1 2.1 2.1z" stroke="#FDB130" stroke-linecap="round" stroke-linejoin="round" stroke-miterlimit="10" stroke-width="2"/>
<path d="m3.6 315.9c1.1598 0 2.1-0.94 2.1-2.1s-0.9402-2.1-2.1-2.1-2.1 0.94-2.1 2.1 0.9402 2.1 2.1 2.1z" stroke="#9E3FB7" stroke-linecap="round" stroke-linejoin="round" stroke-miterlimit="10" stroke-width="2"/>
<path d="m768.2 366.7h7.3" stroke="#9E3FB7" stroke-linecap="round" stroke-linejoin="round" stroke-miterlimit="10" stroke-width="2"/>
<path d="m771.8 363.1v7.3" stroke="#9E3FB7" stroke-linecap="round" stroke-linejoin="round" stroke-miterlimit="10" stroke-width="2"/>
<g opacity=".6" stroke="#9E3FB7" stroke-linecap="round" stroke-linejoin="round" stroke-miterlimit="10" stroke-width="2">
<path d="m696.4 40.5h7.4" opacity=".6"/>
<path d="m700.1 36.8v7.4" opacity=".6"/>
</g>
<path d="m630.3 284.1h5.7" stroke="#E03F8D" stroke-linecap="round" stroke-linejoin="round" stroke-miterlimit="10" stroke-width="2"/>
<path d="m633.2 281.2v5.7" stroke="#E03F8D" stroke-linecap="round" stroke-linejoin="round" stroke-miterlimit="10" stroke-width="2"/>
<path d="m414.9 104.5h5.7" stroke="#E03F8D" stroke-linecap="round" stroke-linejoin="round" stroke-miterlimit="10" stroke-width="2"/>
<path d="m417.8 101.7v5.6" stroke="#E03F8D" stroke-linecap="round" stroke-linejoin="round" stroke-miterlimit="10" stroke-width="2"/>
<path d="m203.7 290.8h7.8" stroke="#E03F8D" stroke-linecap="round" stroke-linejoin="round" stroke-miterlimit="10" stroke-width="2"/>
<path d="m207.6 286.9v7.7" stroke="#E03F8D" stroke-linecap="round" stroke-linejoin="round" stroke-miterlimit="10" stroke-width="2"/>
<path d="m165.9 402.7h10.3" stroke="#1DB7C2" stroke-linecap="round" stroke-linejoin="round" stroke-miterlimit="10" stroke-width="2"/>
<path d="m171 397.5v10.4" stroke="#1DB7C2" stroke-linecap="round" stroke-linejoin="round" stroke-miterlimit="10" stroke-width="2"/>
<path d="m252.1 346.8c1.1-1.5 2.7-0.4 3.8-1.9s-0.5-2.7 0.6-4.2 2.7-0.4 3.8-1.9-0.5-2.7 0.6-4.3c1.1-1.5 2.7-0.4 3.8-1.9" stroke="#fff" stroke-linecap="round" stroke-linejoin="round" stroke-miterlimit="10" stroke-width="2"/>
<g opacity=".4">
<path d="m36.3 391.2c-0.6-1.8 1.2-2.5 0.6-4.2-0.6-1.8-2.5-1.1-3.2-2.9-0.6-1.8 1.2-2.5 0.6-4.2-0.6-1.8-2.5-1.1-3.2-2.9-0.6-1.8 1.2-2.5 0.6-4.2" opacity=".4" stroke="#fff" stroke-linecap="round" stroke-linejoin="round" stroke-miterlimit="10" stroke-width="2"/>
</g>
<path d="m732.3 292.1c-1.7-0.9-0.8-2.6-2.5-3.5s-2.6 0.9-4.3 0.1c-1.7-0.9-0.8-2.6-2.5-3.5s-2.6 0.9-4.3 0.1c-1.7-0.9-0.8-2.6-2.5-3.5" stroke="#fff" stroke-linecap="round" stroke-linejoin="round" stroke-miterlimit="10" stroke-width="2"/>
<g opacity=".53">
<path d="m282.7 439.7c-1.2 0.7-2.2-1-3.4-0.3s-0.2 2.4-1.3 3.1c-1.2 0.7-2.2-1-3.4-0.3s-0.2 2.4-1.3 3.1-2.2-1-3.4-0.3" opacity=".53" stroke="#1DB7C2" stroke-linecap="round" stroke-linejoin="round" stroke-miterlimit="10" stroke-width="2"/>
</g>
<path d="m819.6 253.6c1.8-0.6 2.4 1.4 4.2 0.8s1.2-2.5 3-3c1.8-0.6 2.4 1.4 4.2 0.8s1.2-2.5 3-3 2.4 1.4 4.2 0.8" stroke="#9E3FB7" stroke-linecap="round" stroke-linejoin="round" stroke-miterlimit="10" stroke-width="2"/>
<path d="m487.9 207.4c1.8-0.6 2.4 1.4 4.2 0.8s1.2-2.5 3-3c1.8-0.6 2.4 1.4 4.2 0.8s1.2-2.5 3-3 2.4 1.4 4.2 0.8" stroke="#9E3FB7" stroke-linecap="round" stroke-linejoin="round" stroke-miterlimit="10" stroke-width="2"/>
</svg>
